<?xml version="1.0" encoding="UTF-8" standalone="no"?>
<!-- Created with Inkscape (http://www.inkscape.org/) -->

<svg
   width="1920"
   height="1080"
   viewBox="0 0 1920 1080"
   version="1.1"
   id="svg1"
   sodipodi:docname="background-desktop.svg"
   inkscape:version="1.3.2 (091e20e, 2023-11-25)"
   xmlns:inkscape="http://www.inkscape.org/namespaces/inkscape"
   xmlns:sodipodi="http://sodipodi.sourceforge.net/DTD/sodipodi-0.dtd"
   xmlns="http://www.w3.org/2000/svg"
   xmlns:svg="http://www.w3.org/2000/svg">
  <sodipodi:namedview
     id="namedview1"
     pagecolor="#ffffff"
     bordercolor="#666666"
     borderopacity="1.0"
     inkscape:showpageshadow="2"
     inkscape:pageopacity="0.0"
     inkscape:pagecheckerboard="0"
     inkscape:deskcolor="#d1d1d1"
     inkscape:document-units="px"
     inkscape:zoom="0.3703125"
     inkscape:cx="960"
     inkscape:cy="538.73418"
     inkscape:window-width="1280"
     inkscape:window-height="987"
     inkscape:window-x="0"
     inkscape:window-y="0"
     inkscape:window-maximized="1"
     inkscape:current-layer="layer1" />
  <defs
     id="defs1" />
  <g
     inkscape:label="Layer 1"
     inkscape:groupmode="layer"
     id="layer1">
    <path
       style="fill:#cdfadb;fill-opacity:1"
       id="path7"
       d="m 85.750306,145.13579 c 2.410796,-0.98646 4.838356,-1.9329 7.232387,-2.95937 17.529147,-7.51586 33.517407,-17.41805 50.082757,-26.82341 1.2807,-0.72714 -2.48837,1.57598 -3.73255,2.36397 10.85433,-5.39904 22.75976,-10.51217 35.16576,-10.04743 2.64168,0.099 5.25342,0.59553 7.88012,0.8933 11.22708,2.27698 22.20218,6.82913 28.38866,17.10645 1.69972,2.82367 3.51214,5.78465 3.99311,9.04515 0.78663,5.33255 -0.18249,10.77897 -0.27374,16.16845 -2.32793,8.23268 -4.01265,16.67504 -6.98379,24.69804 -12.83037,34.64605 -32.20173,66.93791 -51.36401,98.34412 -5.67862,9.30702 -12.10714,18.15903 -17.46993,27.65154 -4.04325,7.15682 -7.13523,14.8108 -10.70285,22.21621 4.33703,5.74632 6.50361,14.15955 13.01109,17.23896 26.96435,12.75983 101.93242,16.9402 123.39066,18.66322 11.02271,0.88508 157.0654,10.29005 170.75377,11.60477 20.03565,1.92437 39.90305,5.31688 59.85457,7.97532 7.39624,4.24074 19.82024,4.53207 22.18872,12.72222 1.92023,6.64011 -8.44002,11.24599 -14.11709,15.18926 -8.38303,5.82282 -18.12801,9.40383 -27.40796,13.65389 -15.24883,6.98371 -30.76918,13.35866 -46.15443,20.03645 -14.40326,6.25156 -29.91382,10.40188 -43.21112,18.7516 -12.15294,7.63115 -21.45669,19.06106 -32.18503,28.59159 0.57504,9.84819 -1.6107,20.26073 1.72513,29.54457 7.49826,20.86819 37.45721,52.77524 50.69015,67.89285 10.13386,11.57715 20.6774,22.79379 30.7179,34.45199 25.2439,29.31116 25.0996,30.12202 46.75777,59.26405 0,0 9.68602,-5.75727 9.68602,-5.75727 v 0 c -23.50204,-30.17474 -21.00808,-27.75902 -47.91449,-58.66616 -10.0952,-11.59626 -20.63803,-22.7994 -30.66876,-34.45148 -13.97435,-16.23315 -41.16266,-46.16688 -48.75947,-68.16656 -3.10513,-8.99219 -1.12278,-18.99329 -1.68417,-28.48994 4.63728,-6.0344 7.5188,-13.97436 13.91185,-18.10322 13.26832,-8.56916 28.93426,-12.67816 43.43713,-18.93483 26.97732,-11.63827 68.75421,-27.70726 92.77319,-44.59661 5.72513,-4.02572 15.47712,-10.52683 12.50763,-16.86446 -3.9215,-8.36947 -17.00374,-7.25101 -25.50561,-10.87651 -20.60733,-2.20647 -41.1682,-4.90143 -61.82199,-6.61941 -93.99621,-7.81857 -74.45262,-2.81734 -170.02005,-12.09619 -23.64568,-2.29581 -90.38769,-7.64567 -118.02046,-21.22693 -6.07469,-2.98565 -8.46172,-10.56708 -12.69258,-15.85062 3.31412,-7.2399 6.11949,-14.73506 9.94235,-21.71971 5.16765,-9.44164 11.4328,-18.2412 16.97821,-27.46603 19.13828,-31.83663 38.80517,-64.38278 52.35278,-99.11053 3.22374,-8.26371 5.18181,-16.96687 7.77272,-25.45031 0.20709,-5.67613 1.35816,-11.3965 0.62127,-17.02841 -0.44398,-3.39325 -2.34314,-6.47261 -4.08185,-9.42018 -6.2628,-10.61712 -17.36089,-15.512 -28.87963,-18.0755 -2.64888,-0.37336 -5.27732,-0.944923 -7.94664,-1.120095 -12.56969,-0.824874 -24.72669,4.240675 -35.75233,9.656915 -18.23603,10.33655 -29.30313,17.83826 -53.039454,27.17447 z" />
    <path
       style="fill:#cdfadb;fill-opacity:1"
       id="path8"
       d="m 1695.9423,76.466247 c -29.6352,2.147948 -59.1297,6.581897 -88.2524,12.432912 -10.3498,2.079376 -20.7143,4.177338 -30.8867,6.999858 -7.7666,2.155017 -16.4466,3.015023 -22.8497,7.910413 -5.7774,4.41699 -7.7575,12.30341 -11.6362,18.45512 10.0258,4.74155 19.5182,10.83347 30.0775,14.22465 19.0105,6.10529 38.6846,9.95486 58.2102,14.12927 42.1651,9.01458 104.5071,19.11563 146.8008,27.65003 20.1889,4.0739 40.5399,7.63791 60.3291,13.34524 12.4369,3.58687 24.0288,9.63269 36.0431,14.44903 2.5756,5.22419 8.6984,9.92962 7.7268,15.67258 -1.1287,6.67076 -7.8569,11.1961 -13.0137,15.57563 -19.7235,16.75065 -40.3722,21.54211 -62.2787,33.54131 -8.6984,4.76447 -16.8187,10.51573 -25.228,15.77359 -1.3229,3.19714 -3.9417,6.13151 -3.9686,9.59142 -0.082,10.53074 17.7308,19.64154 25.2678,24.54847 0,0 11.931,-7.67918 11.931,-7.67918 v 0 c -7.0142,-4.31669 -24.626,-12.97114 -24.5485,-22.70178 0.024,-3.08047 2.3553,-5.69318 3.5329,-8.53976 10.1112,-9.90837 -0.1735,-0.5888 27.1553,-14.43631 11.4737,-5.81378 47.8345,-24.24851 59.844,-35.11274 5.2512,-4.7505 12.0783,-10.03256 12.6135,-17.09349 0.4588,-6.05364 -6.7819,-10.07145 -10.1729,-15.10717 -12.7202,-4.3893 -25.1333,-9.79747 -38.1606,-13.1679 -20.2378,-5.23597 -40.9148,-8.60526 -61.434,-12.59934 -47.0731,-9.16287 -98.6745,-17.41228 -145.3693,-28.57547 -18.7434,-4.48092 -37.5218,-9.11584 -55.6718,-15.5942 -9.6722,-3.45233 -18.2757,-9.3745 -27.4135,-14.06175 -3.4514,-1.56908 -13.0174,-2.00884 -10.3542,-4.70723 5.8277,-5.90464 15.4203,-6.20242 23.3914,-8.50206 10.2138,-2.946625 20.6461,-5.101865 31.0655,-7.208567 28.2835,-5.718619 57.0311,-9.958878 85.8962,-10.963636 z" />
    <path
       style="fill:#cdfadb;fill-opacity:1"
       id="path9"
       d="m 1068.6213,891.00593 c -0.089,-1.46518 -0.6987,-2.99287 -0.2661,-4.39555 2.9694,-9.62811 11.9815,-16.28063 19.6154,-21.76465 10.3556,-7.4392 21.0894,-14.42288 32.3198,-20.46091 36.5795,-19.667 87.4825,-38.55098 123.9074,-53.27637 74.7737,-26.86769 149.6313,-54.67261 226.9909,-73.42221 9.2057,-2.23118 50.281,-12.80088 66.2087,-7.50612 3.0252,1.00563 3.0851,5.57972 4.6276,8.36958 -12.3448,20.09227 -6.583,12.81126 -26.3949,33.36499 -6.8004,7.05508 -13.8366,13.87915 -20.7744,20.79915 -6.6566,6.63945 -13.8223,12.79961 -20.0089,19.87913 -4.8814,5.58606 -10.6631,10.98808 -13.0906,17.99807 -1.7683,5.1066 0.8407,10.77548 1.261,16.16322 8.1279,4.29501 15.5175,10.45585 24.3837,12.88505 28.87,7.90996 93.2267,11.97394 120.2385,13.73028 13.0184,0.84646 104.5876,5.05632 121.8005,6.34702 13.2258,0.99174 26.3816,2.76263 39.5724,4.14395 9.7013,3.06864 33.8555,3.34244 39.1609,16.82191 2.2881,5.81334 -1.4227,5.61099 -0.648,11.4494 0.3483,2.62482 1.8027,4.9794 2.704,7.4691 4.448,3.2314 8.5294,7.03959 13.3439,9.6942 20.1135,11.09021 39.6513,15.67313 62.4816,20.56478 19.4378,4.16479 39.0611,7.43778 58.6826,10.62698 39.9008,6.48529 95.6492,13.72117 135.9109,19.14196 0,0 6.2535,-4.41798 6.2535,-4.41798 v 0 c -50.2179,-6.62818 -85.1233,-10.65154 -135.1317,-19.63154 -19.0927,-3.42849 -38.1528,-7.13352 -57.0082,-11.69042 -21.1361,-5.10812 -41.2382,-10.69054 -59.9802,-21.68196 -4.4256,-2.59543 -8.0982,-6.30144 -12.1472,-9.45216 -0.7473,-2.31632 -1.9746,-4.5298 -2.2417,-6.94896 -0.6387,-5.78342 2.7929,-6.60925 -0.026,-12.41742 -6.7006,-13.80803 -32.0957,-12.73083 -42.7325,-15.67383 -13.6689,-1.05597 -27.3192,-2.38871 -41.0066,-3.1679 -50.2984,-2.86338 -70.8728,-1.99 -122.6754,-5.6816 -31.1533,-2.22007 -84.6013,-6.24989 -116.4362,-15.83903 -8.2597,-2.48792 -15.1393,-8.27328 -22.709,-12.40992 -0.4932,-5.01247 -3.0989,-10.26815 -1.4796,-15.03742 2.3118,-6.80882 7.833,-12.11722 12.544,-17.54961 6.1281,-7.06654 13.2372,-13.21878 19.8635,-19.82045 7.0237,-6.99757 14.1798,-13.86411 21.0864,-20.97726 6.2205,-6.40657 12.8776,-12.4714 18.2883,-19.57515 3.72,-4.88394 5.9348,-10.74902 8.9022,-16.12353 -2.1968,-2.87357 -3.0912,-7.7051 -6.5906,-8.62073 -16.5328,-4.32594 -60.7762,7.63579 -70.0625,10.02681 -77.5908,19.97795 -152.9557,47.73129 -228.3896,74.41777 -64.4839,25.44036 -79.5924,29.04069 -138.6757,60.91012 -11.7855,6.35707 -23.1429,13.55267 -34.0271,21.35292 -9.263,6.63841 -17.6095,12.73283 -20.7919,23.63585 -0.4561,1.56262 0.1351,3.25284 0.2026,4.87925 z" />
    <path
       style="fill:#ff8080;fill-opacity:1"
       id="path10"
       d="m 224.74298,676.26214 c -2.53421,3.08444 -7.71014,-1.51075 -10.43556,0.66201 -1.98278,1.58071 -6.28396,6.59458 -3.74832,6.61973 10.52356,0.1044 20.59825,-4.33218 30.92705,-6.35012 56.5043,-11.03925 79.54911,-14.89282 140.36157,-25.81654 69.74547,-11.3794 110.697,-18.61574 180.08494,-27.83195 23.97798,-3.1848 47.96718,-6.42562 72.06796,-8.48447 14.99004,-1.28056 30.17421,-3.34746 45.10812,-1.52553 3.98999,0.48677 10.15158,4.29103 8.9181,8.11667 -2.16042,6.70055 -10.65716,9.20241 -15.98574,13.80361 -19.83135,14.83647 -42.28523,25.57574 -62.74357,39.4131 -9.37704,6.34232 -38.10419,22.48508 -36.07135,41.01683 2.04873,18.67653 31.38555,32.43387 42.37222,39.63597 33.63919,16.03894 31.8163,16.20461 66.25677,28.64838 20.14815,7.27977 38.1045,13.28124 59.52561,15.92537 32.65523,4.03082 85.56434,4.56058 116.30149,5.42779 24.02516,0.37754 48.05032,0.75509 72.07548,1.13263 0,0 5.80605,-4.20217 5.80605,-4.20217 v 0 c -23.85243,-0.49669 -47.70485,-0.99337 -71.55728,-1.49006 -37.24965,-1.68121 -75.97149,-2.35088 -113.11445,-7.48671 -21.15803,-2.92557 -39.69297,-8.50574 -59.77011,-15.53416 -11.0708,-3.87556 -22.1233,-7.85509 -32.89138,-12.50601 -11.25509,-4.86126 -22.07728,-10.66911 -33.11592,-16.00366 -10.25342,-7.05736 -38.32127,-21.1683 -40.41849,-38.817 -2.15851,-18.16441 25.46115,-33.43264 34.61362,-39.61828 20.98599,-14.18326 44.043,-25.14571 64.39751,-40.33797 5.25872,-5.43685 14.6654,-8.82859 15.77617,-16.31055 0.6882,-4.63555 -7.68159,-6.42794 -12.36006,-6.69973 -15.84392,-0.92045 -31.71852,1.56816 -47.50274,3.22201 -24.52596,2.5698 -48.95199,6.03466 -73.37547,9.44347 -55.74254,7.78005 -124.24172,18.77314 -179.60766,27.45622 -26.76415,4.39054 -53.5316,8.76098 -80.29244,13.17161 -18.51703,3.05191 -37.02682,6.14767 -55.54114,9.21601 -24.44551,4.0513 -29.16446,1.52235 -48.18638,15.30768 -2.80251,2.03099 14.08921,-2.54922 10.37155,-0.49171 z" />
    <path
       style="fill:#ff8080;fill-opacity:1"
       id="path11"
       d="m 844.79856,164.13612 c -8.21451,6.08008 -17.42246,10.78825 -25.46407,17.11127 -2.34948,1.84736 -5.45668,3.33521 -6.55931,6.11316 -0.63393,1.5971 0.67896,4.04848 2.30213,4.61233 4.6897,1.62909 9.88891,0.89343 14.83337,1.34014 26.96347,0.36063 53.96117,-3.7135 80.91666,-1.06296 14.73216,1.44862 29.47182,3.92859 41.21094,13.9304 5.22349,4.45046 8.40824,10.84746 12.61236,16.27119 5.11564,8.60513 8.44682,18.56236 15.34693,25.81539 30.38323,31.93731 76.82343,57.68949 114.63533,76.59864 30.4134,15.20922 61.778,28.47996 93.2034,41.46983 65.2756,26.98207 124.6074,47.05464 190.9299,70.50895 62.0138,21.32282 124.1517,42.3798 184.5792,67.94785 15.9946,6.76764 31.7924,13.99154 47.6885,20.98731 0,0 7.7584,-5.15906 7.7584,-5.15906 v 0 c -15.8985,-7.00916 -31.6238,-14.425 -47.6953,-21.02748 -61.6173,-25.3134 -125.7481,-43.68419 -188.7069,-65.19996 -95.8571,-33.0413 -192.6933,-65.227 -282.633,-112.84704 -38.3221,-20.29023 -80.3454,-45.56904 -109.6111,-79.13278 -6.61835,-7.59033 -9.70684,-17.64765 -14.56025,-26.47148 -4.28911,-5.58116 -7.50281,-12.18631 -12.86732,-16.74346 -11.94876,-10.15047 -27.23264,-12.55337 -42.15555,-13.98277 -26.54526,-2.54263 -53.13326,1.40232 -79.69743,0.26388 -4.39824,-0.25927 -8.89906,0.20155 -13.19471,-0.7778 -1.06357,-0.24248 -2.40718,-1.69751 -1.901,-2.66381 1.3296,-2.53824 4.07367,-4.05138 6.33826,-5.80698 8.31689,-6.44756 17.74151,-11.35128 26.33582,-17.39605 z" />
    <path
       style="fill:#f6fdc3;fill-opacity:1"
       id="path12"
       d="m 1822.6157,659.66686 c -4.3863,3.5872 -8.5911,7.40856 -13.1588,10.76162 -20.4457,15.00853 -48.2898,32.85162 -69.1077,45.3349 -63.717,38.20726 -130.6786,70.0595 -197.4467,102.45556 -107.5707,49.95089 -215.7409,98.65422 -321.9631,151.45334 -54.7808,27.22952 -74.7455,38.05252 -127.2959,65.64012 -38.5254,20.7198 -77.0783,41.386 -115.75231,61.8269 0,0 -8.83626,7.1056 -8.83626,7.1056 v 0 c 39.59597,-21.2469 79.08977,-42.6817 118.58737,-64.111 54.4334,-28.8061 71.8554,-38.4066 128.7153,-66.80358 106.2178,-53.04717 214.4458,-101.87778 322.2124,-151.65516 52.8308,-25.46313 95.2564,-45.09362 146.4921,-72.80449 21.6483,-11.70847 42.9703,-24.02037 64.1546,-36.5486 21.1506,-12.50825 51.3323,-31.65995 72.3682,-46.76507 4.9825,-3.57768 9.6098,-7.6256 14.4147,-11.4384 z" />
    <path
       style="fill:#f6fdc3;fill-opacity:1"
       id="path13"
       d="m 342.2232,942.55758 c 5.28847,-14.77035 8.03277,-23.58871 16.5199,-38.91583 36.8089,-66.47419 87.01593,-124.32125 136.296,-181.65074 10.07892,-10.27756 36.49967,-40.5537 53.3085,-47.35972 3.5933,-1.45495 7.42847,2.23969 11.20464,3.11677 8.39814,1.95059 16.90114,3.42835 25.30303,5.36269 11.51051,2.65004 22.76869,6.49545 34.42756,8.38892 16.63925,2.70232 33.52398,3.57939 50.28597,5.36909 89.35384,1.93373 177.84383,-13.40321 265.99239,-25.61723 0,0 2.60367,-1.94515 2.60367,-1.94515 v 0 c -86.44301,11.16289 -173.29125,25.46597 -260.80025,22.03533 -16.29438,-2.06 -32.72985,-3.20991 -48.88315,-6.18001 -11.40877,-2.09773 -22.37649,-6.13156 -33.61891,-8.9896 -8.36879,-2.12752 -16.58417,-6.39038 -25.2087,-5.96556 -38.20431,1.88186 -59.17423,29.97253 -83.04318,55.35393 -49.19168,58.08924 -99.81982,117.20732 -138.61779,182.96763 -8.80512,14.92417 -12.80824,25.46132 -18.93845,40.24767 z" />
    <path
       style="fill:#cdfadb;fill-opacity:1"
       id="path14"
       d="m 1519.9067,85.68327 c -23.2461,13.362938 -24.9934,14.7695 -60.7305,30.23584 -57.2273,24.76691 -137.2046,54.6428 -193.8222,75.78735 -79.9943,29.87482 -160.1953,59.19354 -240.2134,89.00436 -137.4434,52.34849 -71.73989,27.03085 -197.1586,75.82798 0,0 -3.46031,2.71745 -3.46031,2.71745 v 0 c 127.28393,-50.39724 60.73059,-24.39339 199.72471,-77.84569 241.8139,-90.17948 -3.7176,1.05317 239.1761,-88.19208 35.5899,-13.07663 71.2083,-26.08048 106.6582,-39.53216 43.4339,-16.4813 86.9192,-32.39396 128.3671,-53.46745 11.7937,-5.996317 22.9712,-13.134285 34.4569,-19.701426 z" />
    <path
       style="fill:#cdfadb;fill-opacity:1"
       id="path15"
       d="m 1435.173,270.40632 c -3.9074,1.19629 -7.7813,2.50793 -11.7221,3.58886 -51.7951,14.20683 -104.4481,25.66752 -156.8106,37.48336 -220.7101,49.80429 40.1092,-9.7246 -177.9517,40.19412 -15.5015,3.67103 -105.05751,22.75181 -127.55192,34.56459 -8.9789,4.71522 -25.3153,12.25255 -21.41347,21.61363 5.12695,12.30032 23.93578,12.24242 36.86708,15.46192 24.05971,5.99013 152.79901,24.43979 172.24611,27.328 39.1901,6.14591 107.7346,14.3931 148.2437,28.71819 11.0022,3.89065 23.1585,8.25523 30.3556,17.44144 12.3826,15.80484 -22.6364,38.25699 -25.7068,40.64961 -10.573,8.23903 -22.0714,15.21632 -33.1071,22.82448 -7.6391,8.49385 -18.3131,15.02678 -22.9173,25.48157 -11.6726,26.50524 8.8895,42.90191 28.0094,56.77276 16.0548,11.64723 34.0947,20.34129 51.7958,29.29044 19.1765,9.69512 91.1549,40.76062 112.7199,50.16002 -5.1437,-20.03319 47.4935,22.87916 35.4443,33.94387 -5.587,5.13059 -14.9553,2.54786 -22.4329,3.82179 0,0 -8.8928,6.89045 -8.8928,6.89045 v 0 c 14.3634,-5.69574 31.1513,-7.27855 43.0904,-17.08721 13.2563,-10.89094 -60.512,-52.71166 -40.0312,-32.35129 -30.5295,-12.93646 -84.0395,-34.91896 -112.7025,-50.04486 -17.1925,-9.07278 -34.5058,-18.30741 -49.9163,-30.15715 -17.3769,-13.36177 -37.5563,-30.67541 -26.6632,-55.62164 4.4682,-10.23256 14.8889,-16.64329 22.3334,-24.96493 10.6397,-7.32285 50.7016,-32.48694 58.7188,-46.39814 13.5826,-23.56808 -21.9509,-31.63595 -33.554,-35.18289 -38.0611,-11.6349 -115.5932,-21.63521 -150.7945,-26.99516 -30.3686,-4.84306 -60.8527,-9.01018 -91.1057,-14.52919 -10.0483,-1.8331 -89.55528,-13.7622 -110.25684,-30.52658 -2.92774,-2.37092 -0.78672,-9.264 2.55146,-11.01028 27.2865,-14.27413 107.37788,-31.33264 130.59168,-36.9872 29.4253,-6.7473 58.8045,-13.69919 88.2761,-20.2419 83.4892,-18.53472 167.5762,-34.5806 250.6178,-55.06476 z" />
  </g>
</svg>
